<?xml version="1.0" standalone="no"?>
<!DOCTYPE svg PUBLIC "-//W3C//DTD SVG 20010904//EN"
 "http://www.w3.org/TR/2001/REC-SVG-20010904/DTD/svg10.dtd">
<svg version="1.0" xmlns="http://www.w3.org/2000/svg"
 width="200.000000pt" height="200.000000pt" viewBox="0 0 200.000000 200.000000"
 preserveAspectRatio="xMidYMid meet">

<g transform="translate(0.000000,200.000000) scale(0.100000,-0.100000)"
fill="#000000" stroke="none">
<path d="M778 1463 c-87 -87 -138 -145 -138 -157 0 -13 49 -70 132 -153 144
-144 171 -159 203 -109 22 33 11 52 -73 139 l-66 67 329 0 c353 -1 373 -3 438
-53 18 -13 45 -47 60 -75 51 -95 46 -177 -18 -272 -40 -59 -43 -80 -17 -103
31 -28 58 -20 101 30 55 62 86 159 79 247 -12 144 -114 275 -244 316 -61 18
-93 20 -395 20 -181 0 -329 3 -329 8 0 4 34 41 75 82 41 41 75 82 75 92 0 23
-35 58 -57 58 -9 0 -79 -62 -155 -137z"/>
<path d="M284 1243 c-14 -16 -40 -57 -57 -93 -28 -57 -32 -75 -31 -145 1 -149
71 -263 202 -327 l67 -33 353 -5 353 -5 -76 -75 c-55 -55 -75 -81 -75 -101 0
-29 27 -59 55 -59 10 0 78 59 152 132 103 102 133 138 133 158 0 20 -31 57
-138 163 -76 75 -144 137 -151 137 -15 0 -61 -45 -61 -61 0 -6 37 -49 82 -95
l82 -84 -335 0 c-329 0 -335 1 -384 24 -154 72 -200 250 -99 382 38 50 42 74
16 97 -27 25 -58 21 -88 -10z"/>
</g>
</svg>
